<?xml version="1.0" encoding="iso-8859-1"?>
<!-- Generator: Adobe Illustrator 17.1.0, SVG Export Plug-In . SVG Version: 6.00 Build 0)  -->
<!DOCTYPE svg PUBLIC "-//W3C//DTD SVG 1.1//EN" "http://www.w3.org/Graphics/SVG/1.1/DTD/svg11.dtd">
<svg version="1.1" id="Capa_1" xmlns="http://www.w3.org/2000/svg" xmlns:xlink="http://www.w3.org/1999/xlink" x="0px" y="0px"
	 viewBox="0 0 100 100" style="enable-background:new 0 0 100 100;" xml:space="preserve">
<path d="M87,35H77v-8h-9v-9h-9v9H40v-9h-9v9h-9v8H12v10H2v18v10h10V63v-8h10v9h9v9h-9v11h8.603H40V73.289V64h19v9.289V84h9.397H77
	V73h-9v-9h9v-9h10v18h9V45h-9V35z M41,50H31V40h10V50z M69,50H59V40h10V50z"/>
</svg>
