<?xml version="1.0" encoding="utf-8"?>
<!-- Generator: Adobe Illustrator 16.0.0, SVG Export Plug-In . SVG Version: 6.00 Build 0)  -->
<!DOCTYPE svg PUBLIC "-//W3C//DTD SVG 1.1//EN" "http://www.w3.org/Graphics/SVG/1.1/DTD/svg11.dtd">
<svg version="1.1" id="Layer_1" xmlns="http://www.w3.org/2000/svg" xmlns:xlink="http://www.w3.org/1999/xlink" x="0px" y="0px"
	 width="100px" height="100px" viewBox="0 0 100 100" enable-background="new 0 0 100 100" xml:space="preserve">
<g>
	<path d="M71.789,55.902c-1.156-1.627-2.4-3.109-3.707-4.414c0.619-2.947,0.934-5.952,0.934-8.942
		c0-14.307-7.072-27.594-18.458-34.677c-0.323-0.201-0.733-0.201-1.057,0C38.117,14.952,31.043,28.24,31.043,42.546
		c0,2.899,0.294,5.814,0.875,8.674c-1.305,1.304-2.55,2.787-3.707,4.416c-0.179,0.253-0.231,0.573-0.142,0.869l6.399,21.097
		c0.107,0.354,0.398,0.617,0.759,0.69c0.359,0.072,0.731-0.06,0.967-0.342c1.758-2.118,4.194-3.789,6.953-4.789v1.114
		c0,0.552,0.448,1,1,1H55.85c0.553,0,1-0.448,1-1v-0.849c2.76,1,5.193,2.673,6.953,4.789c0.191,0.231,0.477,0.361,0.771,0.361
		c0.064,0,0.131-0.007,0.197-0.021c0.361-0.074,0.65-0.338,0.76-0.689l6.396-21.098C72.021,56.477,71.969,56.154,71.789,55.902z
		 M56.678,36.065c-1.326,2.44-3.871,3.956-6.645,3.956c-2.635,0-5.038-1.345-6.428-3.598c-0.737-1.196-1.126-2.564-1.126-3.957
		c0-4.166,3.389-7.554,7.554-7.554c4.165,0,7.553,3.389,7.553,7.554C57.586,33.724,57.271,34.968,56.678,36.065z M59.057,65.107
		c-0.168,0.371-0.531,0.591-0.914,0.591c-0.137,0-0.275-0.029-0.41-0.089c-0.504-0.228-0.729-0.817-0.502-1.321
		c6.252-13.9,5.352-26.311,5.342-26.434c-0.045-0.55,0.365-1.032,0.916-1.077c0.557-0.038,1.031,0.366,1.076,0.916
		C64.607,38.219,65.527,50.716,59.057,65.107z"/>
	<path d="M50.033,26.914c-3.062,0-5.554,2.492-5.554,5.554c0,1.022,0.287,2.027,0.829,2.907c1.023,1.658,2.79,2.646,4.726,2.646
		c2.041,0,3.912-1.114,4.886-2.91c0.438-0.806,0.668-1.721,0.668-2.645C55.586,29.406,53.096,26.914,50.033,26.914z"/>
	<path d="M55.713,76.579H44.188c-0.335,0-0.647,0.167-0.833,0.446c-0.185,0.279-0.219,0.633-0.089,0.94l5.763,13.704
		c0.156,0.371,0.52,0.612,0.922,0.612s0.766-0.241,0.922-0.612l5.764-13.704c0.129-0.309,0.096-0.661-0.09-0.94
		S56.049,76.579,55.713,76.579z M49.951,88.703l-4.258-10.124h8.517L49.951,88.703z"/>
</g>
</svg>
